# xmcd
#
# Track frame offsets: 
#        150
#        16310
#        29127
#        53460
#        74772
#        89570
#        112660
#        131852
#        158400
#        199180
#        222310
#        243040
#        268972
#
# Disc length: 3844 seconds
#
# Revision: 4
# Processed by: cddbd v1.5.2PL0 Copyright (c) Steve Scherf et al.
# Submitted via: ExactAudioCopy v0.95b4
#
DISCID=b90f020d
DTITLE=Stevie Ray Vaughan - Alpine Valley [CD1]
DYEAR=1990
DGENRE=Blues
TTITLE0=Intro
TTITLE1=The House is Rockin' 
TTITLE2=Tightrope
TTITLE3=The Things I Used to Do
TTITLE4=Let Me Love You Baby
TTITLE5=Leave That Little Girl Alone
TTITLE6=Pride and Joy
TTITLE7=Wall of Denial 
TTITLE8=Riveria Paradise
TTITLE9=Superstition
TTITLE10=Couldn't Stand the Weather 
TTITLE11=Goin' Down
TTITLE12=Crossfire
EXTD=Recorded live at Alpine Valley, WI\nAugust 26, 1990\nStevie's Las
EXTD=t Concert!
EXTT0=
EXTT1=
EXTT2=
EXTT3=
EXTT4=
EXTT5=
EXTT6=
EXTT7=
EXTT8=
EXTT9=
EXTT10=
EXTT11=
EXTT12=
PLAYORDER=
